<svg width="19" height="12" viewBox="0 0 19 12" fill="none" xmlns="http://www.w3.org/2000/svg">
<path d="M17.273 11.6866C17.6522 12.0881 18.2851 12.1062 18.6866 11.727C19.0881 11.3478 19.1062 10.7149 18.727 10.3134L17.273 11.6866ZM9.5 2L10.227 1.31338L9.5 0.543598L8.77299 1.31338L9.5 2ZM0.272987 10.3134C-0.106224 10.7149 -0.0881423 11.3478 0.313377 11.727C0.714895 12.1062 1.3478 12.0881 1.72701 11.6866L0.272987 10.3134ZM18.727 10.3134L10.227 1.31338L8.77299 2.68662L17.273 11.6866L18.727 10.3134ZM8.77299 1.31338L0.272987 10.3134L1.72701 11.6866L10.227 2.68662L8.77299 1.31338Z" fill="white"/>
</svg>
