<svg width="19" height="12" viewBox="0 0 19 12" fill="none" xmlns="http://www.w3.org/2000/svg">
<path d="M17.273 0.313376C17.6522 -0.0881414 18.2851 -0.106225 18.6866 0.272986C19.0881 0.652199 19.1062 1.28511 18.727 1.68662L17.273 0.313376ZM9.5 10L10.227 10.6866L9.5 11.4564L8.77299 10.6866L9.5 10ZM0.272987 1.68662C-0.106224 1.28511 -0.0881423 0.652199 0.313377 0.272986C0.714895 -0.106225 1.3478 -0.0881416 1.72701 0.313376L0.272987 1.68662ZM18.727 1.68662L10.227 10.6866L8.77299 9.31338L17.273 0.313376L18.727 1.68662ZM8.77299 10.6866L0.272987 1.68662L1.72701 0.313376L10.227 9.31338L8.77299 10.6866Z" fill="white"/>
</svg>
